<svg xmlns="http://www.w3.org/2000/svg" xmlns:xlink="http://www.w3.org/1999/xlink" width="300" zoomAndPan="magnify" viewBox="0 0 224.87999 88.499997" height="118" preserveAspectRatio="xMidYMid meet" version="1.0"><defs><g/><clipPath id="id1"><path d="M 2 1.117188 L 57 1.117188 L 57 30.945312 L 2 30.945312 Z M 2 1.117188 " clip-rule="nonzero"/></clipPath><clipPath id="id2"><path d="M 89 1.117188 L 145 1.117188 L 145 30.945312 L 89 30.945312 Z M 89 1.117188 " clip-rule="nonzero"/></clipPath></defs><g fill="#545454" fill-opacity="1"><g transform="translate(8.234015, 65.955025)"><g><path d="M 19.613281 1.191406 C 29.753906 1.191406 36.390625 -4.550781 37.4375 -12.007812 C 37.585938 -12.753906 36.988281 -13.199219 36.019531 -13.199219 L 27.816406 -13.199219 C 26.921875 -13.199219 26.472656 -12.753906 26.25 -11.855469 C 25.578125 -9.023438 23.789062 -7.457031 20.433594 -7.457031 C 15.363281 -7.457031 13.273438 -11.632812 13.273438 -16.480469 C 13.273438 -20.804688 15.363281 -25.429688 20.433594 -25.429688 C 23.789062 -25.429688 25.578125 -23.863281 26.25 -21.03125 C 26.472656 -20.136719 26.921875 -19.6875 27.816406 -19.6875 L 36.019531 -19.6875 C 36.988281 -19.6875 37.585938 -20.285156 37.4375 -21.253906 C 36.167969 -28.5625 29.605469 -34.082031 19.613281 -34.082031 C 8.652344 -34.082031 2.089844 -26.25 2.089844 -16.480469 C 2.089844 -6.636719 8.652344 1.191406 19.613281 1.191406 Z M 19.613281 1.191406 "/></g></g></g><g fill="#545454" fill-opacity="1"><g transform="translate(47.83022, 65.955025)"><g><path d="M 21.253906 0.894531 C 35.722656 0.894531 40.269531 -12.304688 40.269531 -25.207031 C 40.269531 -38.105469 36.691406 -51.457031 21.253906 -51.457031 C 5.742188 -51.457031 2.238281 -38.105469 2.238281 -25.207031 C 2.238281 -12.304688 6.785156 0.894531 21.253906 0.894531 Z M 21.253906 -9.246094 C 14.394531 -9.246094 13.648438 -18.269531 13.648438 -25.28125 C 13.648438 -31.695312 14.242188 -41.3125 21.253906 -41.3125 C 28.414062 -41.3125 28.933594 -31.695312 28.933594 -25.132812 C 28.933594 -18.417969 28.1875 -9.246094 21.253906 -9.246094 Z M 21.253906 -9.246094 "/></g></g></g><g fill="#545454" fill-opacity="1"><g transform="translate(90.334623, 65.955025)"><g><path d="M 26.996094 -32.886719 C 26.027344 -32.886719 25.503906 -32.363281 25.503906 -31.394531 L 25.503906 -15.734375 C 25.503906 -11.113281 22.746094 -7.753906 19.015625 -7.753906 C 16.035156 -7.753906 14.242188 -9.992188 14.242188 -13.796875 L 14.242188 -31.394531 C 14.242188 -32.363281 13.722656 -32.886719 12.753906 -32.886719 L 4.550781 -32.886719 C 3.578125 -32.886719 3.058594 -32.363281 3.058594 -31.394531 L 3.058594 -13.796875 C 3.058594 -4.101562 7.605469 1.191406 15.882812 1.191406 C 21.179688 1.191406 24.90625 -0.96875 27.332031 -5.445312 C 29.195312 -1.753906 32.328125 0.296875 36.691406 0.746094 L 36.691406 -31.394531 C 36.691406 -32.363281 36.167969 -32.886719 35.199219 -32.886719 Z M 26.996094 -32.886719 "/></g></g></g><g fill="#545454" fill-opacity="1"><g transform="translate(130.601952, 65.955025)"><g><path d="M 24.757812 -34.082031 C 20.433594 -34.082031 16.40625 -32.179688 13.011719 -27.183594 C 11.1875 -30.5 7.980469 -32.738281 3.578125 -33.632812 L 3.578125 -1.492188 C 3.578125 -0.523438 4.101562 0 5.070312 0 L 13.273438 0 C 14.242188 0 14.765625 -0.523438 14.765625 -1.492188 L 14.765625 -18.53125 C 15.214844 -22.632812 17.785156 -25.132812 20.957031 -25.132812 C 24.460938 -25.132812 25.953125 -22.96875 25.953125 -19.089844 L 25.953125 -1.492188 C 25.953125 -0.523438 26.472656 0 27.441406 0 L 35.644531 0 C 36.617188 0 37.136719 -0.523438 37.136719 -1.492188 L 37.136719 -19.089844 C 37.136719 -28.039062 33.558594 -34.082031 24.757812 -34.082031 Z M 24.757812 -34.082031 "/></g></g></g><g fill="#545454" fill-opacity="1"><g transform="translate(170.869281, 65.955025)"><g><path d="M 18.34375 -32.886719 L 18.34375 -47.054688 C 11.113281 -45.566406 7.160156 -40.566406 7.160156 -32.886719 L 2.386719 -32.886719 C 1.417969 -32.886719 0.894531 -32.363281 0.894531 -31.394531 L 0.894531 -25.726562 C 0.894531 -24.757812 1.417969 -24.238281 2.386719 -24.238281 L 7.160156 -24.238281 L 7.160156 -1.492188 C 7.160156 -0.523438 7.679688 0 8.652344 0 L 16.855469 0 C 17.824219 0 18.34375 -0.523438 18.34375 -1.492188 L 18.34375 -24.238281 L 23.191406 -24.238281 C 24.160156 -24.238281 24.683594 -24.757812 24.683594 -25.726562 L 24.683594 -31.394531 C 24.683594 -32.363281 24.160156 -32.886719 23.191406 -32.886719 Z M 18.34375 -32.886719 "/></g></g></g><g fill="#545454" fill-opacity="1"><g transform="translate(196.446478, 65.955025)"><g><path d="M 25.503906 -33.335938 C 24.757812 -33.484375 23.863281 -33.632812 23.042969 -33.632812 C 19.089844 -33.632812 15.398438 -31.84375 13.050781 -27.070312 C 11.261719 -30.464844 8.054688 -32.699219 3.578125 -33.632812 L 3.578125 -1.492188 C 3.578125 -0.523438 4.101562 0 5.070312 0 L 13.273438 0 C 14.242188 0 14.765625 -0.523438 14.765625 -1.492188 L 14.765625 -16.554688 C 15.214844 -21.105469 17.523438 -23.492188 21.550781 -23.492188 C 22.597656 -23.492188 23.714844 -23.339844 24.980469 -23.042969 C 26.027344 -22.746094 26.699219 -23.191406 26.699219 -24.238281 L 26.699219 -31.621094 C 26.699219 -32.441406 26.324219 -33.109375 25.503906 -33.335938 Z M 25.503906 -33.335938 "/></g></g></g><g clip-path="url(#id1)"><path fill="#008037" d="M 53.113281 16.855469 C 51.179688 16.824219 49.222656 16.8125 47.257812 16.8125 C 45.40625 20.792969 43.769531 24.886719 42.367188 29.027344 C 41.722656 30.945312 37.402344 30.867188 38.21875 28.449219 C 39.550781 24.511719 41.097656 20.640625 42.847656 16.863281 C 40.574219 16.90625 38.28125 16.976562 35.980469 17.066406 C 34.167969 20.964844 32.570312 24.964844 31.210938 29.027344 C 30.5625 30.945312 26.246094 30.867188 27.0625 28.449219 C 28.34375 24.652344 29.828125 20.925781 31.496094 17.28125 C 29.183594 17.402344 26.847656 17.554688 24.515625 17.726562 C 22.824219 21.421875 21.34375 25.199219 20.042969 29.027344 C 19.398438 30.945312 15.078125 30.867188 15.894531 28.449219 C 17.082031 24.9375 18.445312 21.484375 19.960938 18.101562 C 17.605469 18.304688 15.242188 18.539062 12.875 18.792969 C 11.382812 22.144531 10.050781 25.566406 8.886719 29.027344 C 8.238281 30.945312 3.921875 30.867188 4.738281 28.449219 C 5.785156 25.363281 6.960938 22.304688 8.261719 19.320312 C 7.289062 19.433594 6.324219 19.554688 5.351562 19.6875 C 1.730469 20.152344 0.574219 16.019531 5.128906 15.441406 C 6.867188 15.21875 8.597656 15.007812 10.328125 14.8125 C 12.3125 10.722656 14.523438 6.742188 16.941406 2.894531 C 18.054688 1.117188 22.046875 1.929688 20.585938 4.273438 C 18.546875 7.511719 16.675781 10.863281 14.964844 14.304688 C 17.328125 14.070312 19.695312 13.859375 22.039062 13.664062 C 23.878906 9.96875 25.90625 6.375 28.097656 2.882812 C 29.214844 1.117188 33.214844 1.929688 31.75 4.273438 C 29.910156 7.207031 28.199219 10.242188 26.625 13.339844 C 28.945312 13.1875 31.269531 13.054688 33.574219 12.945312 C 35.3125 9.503906 37.21875 6.152344 39.273438 2.882812 C 40.378906 1.117188 44.382812 1.929688 42.917969 4.273438 C 41.1875 7.023438 39.570312 9.867188 38.078125 12.773438 C 40.371094 12.699219 42.640625 12.640625 44.914062 12.621094 C 46.613281 9.300781 48.457031 6.050781 50.441406 2.894531 C 51.546875 1.117188 55.550781 1.929688 54.074219 4.273438 C 52.375 6.972656 50.800781 9.746094 49.335938 12.589844 C 51.066406 12.589844 52.785156 12.597656 54.496094 12.628906 C 57.996094 12.691406 57.742188 16.925781 53.113281 16.855469 Z M 53.113281 16.855469 " fill-opacity="1" fill-rule="nonzero"/></g><g clip-path="url(#id2)"><path fill="#008037" d="M 140.671875 16.855469 C 138.738281 16.824219 136.78125 16.8125 134.816406 16.8125 C 132.964844 20.792969 131.328125 24.886719 129.925781 29.027344 C 129.28125 30.945312 124.960938 30.867188 125.777344 28.449219 C 127.109375 24.511719 128.65625 20.640625 130.40625 16.863281 C 128.132812 16.90625 125.839844 16.976562 123.539062 17.066406 C 121.726562 20.964844 120.128906 24.964844 118.765625 29.027344 C 118.121094 30.945312 113.804688 30.867188 114.621094 28.449219 C 115.902344 24.652344 117.386719 20.925781 119.054688 17.28125 C 116.742188 17.402344 114.40625 17.554688 112.074219 17.726562 C 110.382812 21.421875 108.898438 25.199219 107.601562 29.027344 C 106.957031 30.945312 102.636719 30.867188 103.453125 28.449219 C 104.640625 24.9375 106.003906 21.484375 107.519531 18.101562 C 105.164062 18.304688 102.800781 18.539062 100.433594 18.792969 C 98.941406 22.144531 97.609375 25.566406 96.441406 29.027344 C 95.796875 30.945312 91.480469 30.867188 92.296875 28.449219 C 93.339844 25.363281 94.519531 22.304688 95.820312 19.320312 C 94.847656 19.433594 93.882812 19.554688 92.910156 19.6875 C 89.289062 20.152344 88.132812 16.019531 92.6875 15.441406 C 94.425781 15.21875 96.15625 15.007812 97.886719 14.8125 C 99.871094 10.722656 102.082031 6.742188 104.5 2.894531 C 105.613281 1.117188 109.605469 1.929688 108.140625 4.273438 C 106.105469 7.511719 104.234375 10.863281 102.523438 14.304688 C 104.886719 14.070312 107.253906 13.859375 109.597656 13.664062 C 111.4375 9.96875 113.464844 6.375 115.65625 2.882812 C 116.769531 1.117188 120.773438 1.929688 119.308594 4.273438 C 117.46875 7.207031 115.757812 10.242188 114.183594 13.339844 C 116.503906 13.1875 118.828125 13.054688 121.132812 12.945312 C 122.871094 9.503906 124.777344 6.152344 126.832031 2.882812 C 127.9375 1.117188 131.941406 1.929688 130.476562 4.273438 C 128.746094 7.023438 127.128906 9.867188 125.636719 12.773438 C 127.929688 12.699219 130.199219 12.640625 132.472656 12.621094 C 134.171875 9.300781 136.015625 6.050781 138 2.894531 C 139.105469 1.117188 143.109375 1.929688 141.632812 4.273438 C 139.933594 6.972656 138.359375 9.746094 136.894531 12.589844 C 138.625 12.589844 140.34375 12.597656 142.054688 12.628906 C 145.554688 12.691406 145.296875 16.925781 140.671875 16.855469 Z M 140.671875 16.855469 " fill-opacity="1" fill-rule="nonzero"/></g><g fill="#000000" fill-opacity="1"><g transform="translate(28.58018, 85.271502)"><g><path d="M 1.605469 -15.597656 C 1.308594 -15.597656 1.148438 -15.4375 1.148438 -15.140625 L 1.148438 -12.9375 C 1.148438 -12.640625 1.308594 -12.480469 1.605469 -12.480469 L 3.660156 -12.480469 C 2.15625 -11.894531 1.148438 -10.3125 1.148438 -7.914062 L 1.148438 -0.457031 C 1.148438 -0.160156 1.308594 0 1.605469 0 L 4.128906 0 C 4.425781 0 4.589844 -0.160156 4.589844 -0.457031 L 4.589844 -8.707031 C 5.136719 -7.386719 6.5625 -6.492188 8.71875 -6.492188 L 9.496094 -6.492188 C 9.796875 -6.492188 9.957031 -6.652344 9.957031 -6.949219 L 9.957031 -9.152344 C 9.957031 -9.453125 9.796875 -9.613281 9.496094 -9.613281 L 4.589844 -9.613281 L 4.589844 -12.480469 L 9.726562 -12.480469 C 10.023438 -12.480469 10.183594 -12.640625 10.183594 -12.9375 L 10.183594 -15.140625 C 10.183594 -15.4375 10.023438 -15.597656 9.726562 -15.597656 Z M 1.605469 -15.597656 "/></g></g></g><g fill="#000000" fill-opacity="1"><g transform="translate(39.31486, 85.271502)"><g><path d="M 7.84375 -10.253906 C 7.617188 -10.300781 7.339844 -10.347656 7.089844 -10.347656 C 5.871094 -10.347656 4.738281 -9.796875 4.015625 -8.328125 C 3.464844 -9.371094 2.476562 -10.058594 1.101562 -10.347656 L 1.101562 -0.457031 C 1.101562 -0.160156 1.261719 0 1.558594 0 L 4.082031 0 C 4.382812 0 4.542969 -0.160156 4.542969 -0.457031 L 4.542969 -5.09375 C 4.679688 -6.492188 5.390625 -7.226562 6.628906 -7.226562 C 6.949219 -7.226562 7.296875 -7.179688 7.683594 -7.089844 C 8.007812 -6.996094 8.210938 -7.132812 8.210938 -7.457031 L 8.210938 -9.726562 C 8.210938 -9.980469 8.097656 -10.183594 7.84375 -10.253906 Z M 7.84375 -10.253906 "/></g></g></g><g fill="#000000" fill-opacity="1"><g transform="translate(47.916373, 85.271502)"><g><path d="M 6.421875 0.367188 C 10.023438 0.367188 12.179688 -1.859375 12.179688 -5.046875 C 12.179688 -8.210938 10 -10.484375 6.421875 -10.484375 C 2.820312 -10.484375 0.640625 -8.210938 0.640625 -5.046875 C 0.640625 -1.882812 2.796875 0.367188 6.421875 0.367188 Z M 6.421875 -2.316406 C 4.886719 -2.316406 4.058594 -3.511719 4.058594 -5.023438 C 4.058594 -6.5625 4.910156 -7.800781 6.421875 -7.800781 C 7.9375 -7.800781 8.761719 -6.582031 8.761719 -5.023438 C 8.761719 -3.488281 7.9375 -2.316406 6.421875 -2.316406 Z M 6.421875 -2.316406 "/></g></g></g><g fill="#000000" fill-opacity="1"><g transform="translate(60.761298, 85.271502)"><g><path d="M 14.152344 -10.484375 C 12.628906 -10.484375 11.515625 -10.058594 10.550781 -8.890625 C 9.898438 -10.164062 8.660156 -10.484375 7.546875 -10.484375 C 6.207031 -10.484375 4.816406 -9.808594 3.820312 -8.648438 C 3.246094 -9.519531 2.328125 -10.09375 1.101562 -10.347656 L 1.101562 -0.457031 C 1.101562 -0.160156 1.261719 0 1.558594 0 L 4.082031 0 C 4.382812 0 4.542969 -0.160156 4.542969 -0.457031 L 4.542969 -5.828125 C 4.667969 -7.007812 5.265625 -7.730469 6.308594 -7.730469 C 7.457031 -7.730469 7.84375 -6.949219 7.84375 -5.503906 L 7.84375 -0.457031 C 7.84375 -0.160156 8.007812 0 8.304688 0 L 10.828125 0 C 11.125 0 11.285156 -0.160156 11.285156 -0.457031 L 11.285156 -5.503906 C 11.285156 -6.949219 11.8125 -7.730469 13.054688 -7.730469 C 14.292969 -7.730469 14.613281 -6.949219 14.613281 -5.503906 L 14.613281 -0.457031 C 14.613281 -0.160156 14.773438 0 15.070312 0 L 17.59375 0 C 17.894531 0 18.054688 -0.160156 18.054688 -0.457031 L 18.054688 -6.652344 C 18.054688 -8.808594 16.792969 -10.484375 14.152344 -10.484375 Z M 14.152344 -10.484375 "/></g></g></g><g fill="#000000" fill-opacity="1"><g transform="translate(79.799307, 85.271502)"><g/></g></g><g fill="#000000" fill-opacity="1"><g transform="translate(85.763023, 85.271502)"><g><path d="M 11.929688 -15.046875 C 12.089844 -15.371094 11.953125 -15.597656 11.609375 -15.597656 L 1.054688 -15.597656 C 0.757812 -15.597656 0.597656 -15.4375 0.597656 -15.140625 L 0.597656 -12.9375 C 0.597656 -12.640625 0.757812 -12.480469 1.054688 -12.480469 L 6.894531 -12.480469 L 0.414062 -0.550781 C 0.253906 -0.230469 0.390625 0 0.734375 0 L 8.578125 0 C 11.101562 0 12.570312 -1.308594 13.03125 -3.121094 L 5.425781 -3.121094 Z M 11.929688 -15.046875 "/></g></g></g><g fill="#000000" fill-opacity="1"><g transform="translate(98.929069, 85.271502)"><g><path d="M 6.515625 -10.484375 C 3.121094 -10.484375 0.621094 -8.351562 0.621094 -5.046875 C 0.621094 -1.699219 3.027344 0.367188 6.515625 0.367188 C 9.039062 0.367188 11.035156 -0.734375 11.835938 -3.027344 C 11.953125 -3.347656 11.769531 -3.554688 11.445312 -3.554688 L 8.902344 -3.554688 C 8.648438 -3.554688 8.511719 -3.417969 8.394531 -3.164062 C 8.121094 -2.546875 7.457031 -2.085938 6.445312 -2.085938 C 5.160156 -2.085938 4.359375 -3.003906 4.265625 -4.40625 L 11.652344 -4.40625 C 11.953125 -4.40625 12.113281 -4.566406 12.113281 -4.863281 L 12.113281 -5.277344 C 12.113281 -8.625 9.589844 -10.484375 6.515625 -10.484375 Z M 4.3125 -6.261719 C 4.507812 -7.363281 5.128906 -8.144531 6.398438 -8.144531 C 7.617188 -8.144531 8.394531 -7.363281 8.464844 -6.261719 Z M 4.3125 -6.261719 "/></g></g></g><g fill="#000000" fill-opacity="1"><g transform="translate(111.705175, 85.271502)"><g><path d="M 7.84375 -10.253906 C 7.617188 -10.300781 7.339844 -10.347656 7.089844 -10.347656 C 5.871094 -10.347656 4.738281 -9.796875 4.015625 -8.328125 C 3.464844 -9.371094 2.476562 -10.058594 1.101562 -10.347656 L 1.101562 -0.457031 C 1.101562 -0.160156 1.261719 0 1.558594 0 L 4.082031 0 C 4.382812 0 4.542969 -0.160156 4.542969 -0.457031 L 4.542969 -5.09375 C 4.679688 -6.492188 5.390625 -7.226562 6.628906 -7.226562 C 6.949219 -7.226562 7.296875 -7.179688 7.683594 -7.089844 C 8.007812 -6.996094 8.210938 -7.132812 8.210938 -7.457031 L 8.210938 -9.726562 C 8.210938 -9.980469 8.097656 -10.183594 7.84375 -10.253906 Z M 7.84375 -10.253906 "/></g></g></g><g fill="#000000" fill-opacity="1"><g transform="translate(120.306688, 85.271502)"><g><path d="M 6.421875 0.367188 C 10.023438 0.367188 12.179688 -1.859375 12.179688 -5.046875 C 12.179688 -8.210938 10 -10.484375 6.421875 -10.484375 C 2.820312 -10.484375 0.640625 -8.210938 0.640625 -5.046875 C 0.640625 -1.882812 2.796875 0.367188 6.421875 0.367188 Z M 6.421875 -2.316406 C 4.886719 -2.316406 4.058594 -3.511719 4.058594 -5.023438 C 4.058594 -6.5625 4.910156 -7.800781 6.421875 -7.800781 C 7.9375 -7.800781 8.761719 -6.582031 8.761719 -5.023438 C 8.761719 -3.488281 7.9375 -2.316406 6.421875 -2.316406 Z M 6.421875 -2.316406 "/></g></g></g><g fill="#000000" fill-opacity="1"><g transform="translate(133.151612, 85.271502)"><g/></g></g><g fill="#000000" fill-opacity="1"><g transform="translate(139.115329, 85.271502)"><g><path d="M 5.644531 -10.117188 L 5.644531 -14.476562 C 3.417969 -14.015625 2.203125 -12.480469 2.203125 -10.117188 L 0.734375 -10.117188 C 0.4375 -10.117188 0.273438 -9.957031 0.273438 -9.65625 L 0.273438 -7.914062 C 0.273438 -7.617188 0.4375 -7.457031 0.734375 -7.457031 L 2.203125 -7.457031 L 2.203125 -0.457031 C 2.203125 -0.160156 2.363281 0 2.660156 0 L 5.183594 0 C 5.484375 0 5.644531 -0.160156 5.644531 -0.457031 L 5.644531 -7.457031 L 7.132812 -7.457031 C 7.433594 -7.457031 7.59375 -7.617188 7.59375 -7.914062 L 7.59375 -9.65625 C 7.59375 -9.957031 7.433594 -10.117188 7.132812 -10.117188 Z M 5.644531 -10.117188 "/></g></g></g><g fill="#000000" fill-opacity="1"><g transform="translate(146.982847, 85.271502)"><g><path d="M 6.421875 0.367188 C 10.023438 0.367188 12.179688 -1.859375 12.179688 -5.046875 C 12.179688 -8.210938 10 -10.484375 6.421875 -10.484375 C 2.820312 -10.484375 0.640625 -8.210938 0.640625 -5.046875 C 0.640625 -1.882812 2.796875 0.367188 6.421875 0.367188 Z M 6.421875 -2.316406 C 4.886719 -2.316406 4.058594 -3.511719 4.058594 -5.023438 C 4.058594 -6.5625 4.910156 -7.800781 6.421875 -7.800781 C 7.9375 -7.800781 8.761719 -6.582031 8.761719 -5.023438 C 8.761719 -3.488281 7.9375 -2.316406 6.421875 -2.316406 Z M 6.421875 -2.316406 "/></g></g></g><g fill="#000000" fill-opacity="1"><g transform="translate(159.827772, 85.271502)"><g/></g></g><g fill="#000000" fill-opacity="1"><g transform="translate(165.791489, 85.271502)"><g><path d="M 8.535156 -2.980469 L 8.535156 -15.507812 C 8.535156 -15.828125 8.328125 -15.988281 8.007812 -15.875 L 2.570312 -14.015625 C 2.316406 -13.925781 2.203125 -13.742188 2.203125 -13.488281 L 2.203125 -11.078125 C 2.203125 -10.757812 2.410156 -10.597656 2.730469 -10.714844 L 7.375 -12.308594 C 5.699219 -10.851562 5.09375 -9.128906 5.09375 -6.652344 L 5.09375 -2.980469 L 2.59375 -2.980469 C 2.292969 -2.980469 2.132812 -2.820312 2.132812 -2.523438 L 2.132812 -0.457031 C 2.132812 -0.160156 2.292969 0 2.59375 0 L 10.988281 0 C 11.285156 0 11.445312 -0.160156 11.445312 -0.457031 L 11.445312 -2.523438 C 11.445312 -2.820312 11.285156 -2.980469 10.988281 -2.980469 Z M 8.535156 -2.980469 "/></g></g></g><g fill="#000000" fill-opacity="1"><g transform="translate(178.86578, 85.271502)"><g><path d="M 6.539062 0.273438 C 10.988281 0.273438 12.386719 -3.785156 12.386719 -7.753906 C 12.386719 -11.722656 11.285156 -15.828125 6.539062 -15.828125 C 1.765625 -15.828125 0.6875 -11.722656 0.6875 -7.753906 C 0.6875 -3.785156 2.085938 0.273438 6.539062 0.273438 Z M 6.539062 -2.84375 C 4.425781 -2.84375 4.199219 -5.621094 4.199219 -7.777344 C 4.199219 -9.75 4.382812 -12.707031 6.539062 -12.707031 C 8.738281 -12.707031 8.902344 -9.75 8.902344 -7.730469 C 8.902344 -5.667969 8.671875 -2.84375 6.539062 -2.84375 Z M 6.539062 -2.84375 "/></g></g></g><g fill="#000000" fill-opacity="1"><g transform="translate(191.940071, 85.271502)"><g><path d="M 6.539062 0.273438 C 10.988281 0.273438 12.386719 -3.785156 12.386719 -7.753906 C 12.386719 -11.722656 11.285156 -15.828125 6.539062 -15.828125 C 1.765625 -15.828125 0.6875 -11.722656 0.6875 -7.753906 C 0.6875 -3.785156 2.085938 0.273438 6.539062 0.273438 Z M 6.539062 -2.84375 C 4.425781 -2.84375 4.199219 -5.621094 4.199219 -7.777344 C 4.199219 -9.75 4.382812 -12.707031 6.539062 -12.707031 C 8.738281 -12.707031 8.902344 -9.75 8.902344 -7.730469 C 8.902344 -5.667969 8.671875 -2.84375 6.539062 -2.84375 Z M 6.539062 -2.84375 "/></g></g></g></svg>