<svg xmlns="http://www.w3.org/2000/svg" xmlns:xlink="http://www.w3.org/1999/xlink" width="330" zoomAndPan="magnify" viewBox="0 0 247.5 67.499998" height="90" preserveAspectRatio="xMidYMid meet" version="1.0"><defs><g/><clipPath id="id1"><path d="M 166 1 L 216.976562 1 L 216.976562 45 L 166 45 Z M 166 1 " clip-rule="nonzero"/></clipPath><clipPath id="id2"><path d="M 150.585938 24 L 202 24 L 202 67.003906 L 150.585938 67.003906 Z M 150.585938 24 " clip-rule="nonzero"/></clipPath><clipPath id="id3"><path d="M 216 17 L 246.34375 17 L 246.34375 59 L 216 59 Z M 216 17 " clip-rule="nonzero"/></clipPath></defs><g clip-path="url(#id1)"><path fill="#0795ff" d="M 216.839844 24.582031 L 213.429688 6.578125 C 213.398438 6.433594 213.332031 6.304688 213.230469 6.195312 C 213.128906 6.085938 213.007812 6.007812 212.867188 5.960938 C 212.722656 5.917969 212.582031 5.910156 212.433594 5.941406 C 212.289062 5.972656 212.160156 6.035156 212.050781 6.136719 L 208.917969 9.292969 C 208.339844 8.710938 207.734375 8.160156 207.101562 7.636719 C 206.46875 7.113281 205.8125 6.625 205.132812 6.164062 C 204.449219 5.707031 203.75 5.285156 203.027344 4.898438 C 202.304688 4.507812 201.566406 4.15625 200.808594 3.839844 C 200.054688 3.523438 199.285156 3.246094 198.5 3.007812 C 197.714844 2.765625 196.921875 2.566406 196.121094 2.40625 C 195.316406 2.242188 194.507812 2.121094 193.691406 2.039062 C 192.878906 1.957031 192.058594 1.917969 191.242188 1.917969 C 190.421875 1.914062 189.605469 1.953125 188.789062 2.035156 C 187.972656 2.113281 187.164062 2.230469 186.359375 2.390625 C 185.554688 2.550781 184.761719 2.75 183.976562 2.988281 C 183.195312 3.222656 182.421875 3.5 181.667969 3.8125 C 180.910156 4.125 180.167969 4.476562 179.445312 4.863281 C 178.722656 5.25 178.019531 5.671875 177.339844 6.125 C 176.65625 6.582031 176 7.070312 175.363281 7.589844 C 174.730469 8.113281 174.125 8.664062 173.542969 9.242188 C 172.964844 9.824219 172.414062 10.429688 171.894531 11.066406 C 171.375 11.699219 170.886719 12.359375 170.429688 13.042969 C 169.972656 13.722656 169.550781 14.429688 169.164062 15.152344 C 168.777344 15.875 168.425781 16.617188 168.113281 17.378906 C 167.800781 18.136719 167.523438 18.910156 167.285156 19.695312 C 167.046875 20.480469 166.84375 21.277344 166.683594 22.082031 C 166.523438 22.890625 166.402344 23.699219 166.324219 24.519531 C 166.242188 25.335938 166.199219 26.15625 166.199219 26.976562 C 166.199219 27.800781 166.238281 28.621094 166.316406 29.4375 C 166.398438 30.257812 166.515625 31.066406 166.675781 31.875 C 166.835938 32.679688 167.03125 33.476562 167.269531 34.261719 C 167.507812 35.050781 167.78125 35.824219 168.09375 36.582031 C 168.410156 37.34375 168.757812 38.085938 169.144531 38.808594 C 169.527344 39.535156 169.949219 40.238281 170.402344 40.921875 C 170.859375 41.605469 171.34375 42.265625 171.863281 42.902344 C 172.382812 43.539062 172.933594 44.144531 173.511719 44.726562 L 181.792969 36.417969 C 181.175781 35.800781 180.625 35.128906 180.140625 34.398438 C 179.65625 33.671875 179.246094 32.90625 178.910156 32.097656 C 178.578125 31.289062 178.324219 30.453125 178.152344 29.59375 C 177.984375 28.738281 177.898438 27.871094 177.898438 26.996094 C 177.898438 26.121094 177.980469 25.253906 178.152344 24.394531 C 178.320312 23.535156 178.574219 22.703125 178.90625 21.894531 C 179.242188 21.085938 179.652344 20.316406 180.136719 19.589844 C 180.621094 18.859375 181.171875 18.1875 181.789062 17.566406 C 182.40625 16.949219 183.074219 16.394531 183.800781 15.910156 C 184.527344 15.421875 185.292969 15.011719 186.097656 14.679688 C 186.90625 14.34375 187.738281 14.089844 188.59375 13.921875 C 189.449219 13.75 190.3125 13.664062 191.183594 13.664062 C 192.058594 13.664062 192.921875 13.75 193.777344 13.921875 C 194.632812 14.09375 195.464844 14.347656 196.269531 14.679688 C 197.074219 15.015625 197.839844 15.425781 198.566406 15.914062 C 199.292969 16.402344 199.964844 16.953125 200.578125 17.574219 L 197.433594 20.773438 C 197.332031 20.882812 197.269531 21.011719 197.238281 21.160156 C 197.207031 21.304688 197.214844 21.449219 197.257812 21.589844 C 197.304688 21.734375 197.382812 21.855469 197.492188 21.957031 C 197.601562 22.054688 197.730469 22.125 197.875 22.15625 L 215.816406 25.578125 C 215.957031 25.609375 216.097656 25.609375 216.238281 25.570312 C 216.378906 25.53125 216.5 25.460938 216.601562 25.363281 C 216.707031 25.261719 216.78125 25.140625 216.820312 25 C 216.863281 24.863281 216.871094 24.722656 216.839844 24.582031 Z M 216.839844 24.582031 " fill-opacity="1" fill-rule="nonzero"/></g><g clip-path="url(#id2)"><path fill="#ccd8e5" d="M 150.585938 44.660156 L 153.992188 62.660156 C 154.027344 62.804688 154.09375 62.933594 154.195312 63.042969 C 154.296875 63.152344 154.417969 63.230469 154.558594 63.277344 C 154.699219 63.320312 154.84375 63.328125 154.988281 63.296875 C 155.132812 63.265625 155.261719 63.203125 155.375 63.101562 L 158.507812 59.945312 C 159.085938 60.527344 159.691406 61.078125 160.324219 61.601562 C 160.957031 62.125 161.613281 62.613281 162.292969 63.070312 C 162.972656 63.53125 163.675781 63.953125 164.398438 64.339844 C 165.117188 64.730469 165.859375 65.082031 166.613281 65.398438 C 167.371094 65.710938 168.140625 65.988281 168.921875 66.230469 C 169.707031 66.46875 170.5 66.667969 171.304688 66.832031 C 172.105469 66.992188 172.917969 67.113281 173.730469 67.195312 C 174.546875 67.277344 175.363281 67.320312 176.183594 67.320312 C 177 67.320312 177.820312 67.28125 178.632812 67.203125 C 179.449219 67.121094 180.257812 67.003906 181.0625 66.84375 C 181.867188 66.683594 182.660156 66.488281 183.445312 66.25 C 184.230469 66.011719 185 65.734375 185.757812 65.421875 C 186.515625 65.109375 187.253906 64.757812 187.976562 64.371094 C 188.699219 63.984375 189.402344 63.566406 190.082031 63.109375 C 190.765625 62.652344 191.421875 62.164062 192.058594 61.644531 C 192.691406 61.125 193.296875 60.574219 193.878906 59.992188 C 194.457031 59.414062 195.007812 58.804688 195.527344 58.171875 C 196.046875 57.535156 196.535156 56.878906 196.992188 56.195312 C 197.449219 55.511719 197.871094 54.808594 198.257812 54.085938 C 198.644531 53.359375 198.992188 52.617188 199.308594 51.859375 C 199.621094 51.101562 199.898438 50.328125 200.136719 49.542969 C 200.375 48.753906 200.574219 47.960938 200.738281 47.152344 C 200.898438 46.347656 201.019531 45.535156 201.097656 44.71875 C 201.179688 43.902344 201.222656 43.082031 201.222656 42.257812 C 201.222656 41.4375 201.183594 40.617188 201.105469 39.800781 C 201.023438 38.980469 200.90625 38.171875 200.746094 37.363281 C 200.585938 36.558594 200.390625 35.761719 200.152344 34.976562 C 199.914062 34.1875 199.640625 33.414062 199.328125 32.65625 C 199.015625 31.894531 198.664062 31.152344 198.28125 30.429688 C 197.894531 29.703125 197.472656 29 197.019531 28.316406 C 196.566406 27.632812 196.078125 26.972656 195.558594 26.335938 C 195.039062 25.699219 194.492188 25.09375 193.914062 24.511719 L 185.628906 32.820312 C 186.246094 33.4375 186.796875 34.109375 187.28125 34.839844 C 187.765625 35.566406 188.175781 36.335938 188.511719 37.140625 C 188.84375 37.949219 189.097656 38.785156 189.265625 39.640625 C 189.4375 40.5 189.519531 41.367188 189.519531 42.242188 C 189.519531 43.117188 189.4375 43.984375 189.265625 44.84375 C 189.097656 45.699219 188.84375 46.535156 188.511719 47.339844 C 188.175781 48.148438 187.765625 48.917969 187.28125 49.644531 C 186.796875 50.375 186.246094 51.046875 185.628906 51.664062 C 185.015625 52.285156 184.34375 52.835938 183.617188 53.324219 C 182.890625 53.808594 182.128906 54.21875 181.320312 54.554688 C 180.515625 54.890625 179.683594 55.140625 178.828125 55.3125 C 177.972656 55.484375 177.109375 55.566406 176.238281 55.566406 C 175.367188 55.566406 174.5 55.484375 173.644531 55.3125 C 172.789062 55.140625 171.960938 54.886719 171.152344 54.554688 C 170.347656 54.21875 169.582031 53.808594 168.859375 53.324219 C 168.132812 52.835938 167.460938 52.285156 166.84375 51.664062 L 169.992188 48.464844 C 170.089844 48.355469 170.15625 48.226562 170.1875 48.078125 C 170.21875 47.933594 170.210938 47.789062 170.164062 47.648438 C 170.121094 47.503906 170.042969 47.382812 169.933594 47.28125 C 169.824219 47.183594 169.695312 47.113281 169.550781 47.082031 L 151.605469 43.660156 C 151.464844 43.628906 151.324219 43.628906 151.1875 43.667969 C 151.046875 43.707031 150.925781 43.777344 150.820312 43.878906 C 150.71875 43.976562 150.644531 44.097656 150.601562 44.238281 C 150.558594 44.375 150.554688 44.515625 150.585938 44.660156 Z M 150.585938 44.660156 " fill-opacity="1" fill-rule="nonzero"/></g><g fill="#004aad" fill-opacity="1"><g transform="translate(1.248696, 57.914433)"><g><path d="M 15.15625 -15.078125 L 11.015625 -15.078125 L 8.40625 0 L 0.28125 0 L 7.421875 -41.25 L 19.890625 -41.21875 C 23.566406 -41.101562 26.382812 -39.96875 28.34375 -37.8125 C 30.3125 -35.664062 31.144531 -32.734375 30.84375 -29.015625 C 30.375 -23.359375 27.804688 -19.425781 23.140625 -17.21875 L 27.28125 -0.453125 L 27.28125 0 L 18.5625 0 Z M 12.203125 -22.015625 L 16.484375 -21.953125 C 18.453125 -21.992188 20 -22.773438 21.125 -24.296875 C 22.257812 -25.816406 22.816406 -27.832031 22.796875 -30.34375 C 22.722656 -32.8125 21.640625 -34.125 19.546875 -34.28125 L 14.359375 -34.3125 Z M 12.203125 -22.015625 "/></g></g></g><g fill="#004aad" fill-opacity="1"><g transform="translate(32.693457, 57.914433)"><g><path d="M 24.046875 -17.84375 L 11.46875 -17.84375 L 9.578125 -6.90625 L 24.46875 -6.90625 L 23.25 0 L 0.25 0 L 7.390625 -41.25 L 30.375 -41.25 L 29.15625 -34.3125 L 14.328125 -34.3125 L 12.640625 -24.5625 L 25.234375 -24.5625 Z M 24.046875 -17.84375 "/></g></g></g><g fill="#004aad" fill-opacity="1"><g transform="translate(60.597149, 57.914433)"><g><path d="M 15.265625 -11.421875 L 26.65625 -41.25 L 35.921875 -41.25 L 17.9375 0 L 9.46875 0 L 4.453125 -41.25 L 13.25 -41.25 Z M 15.265625 -11.421875 "/></g></g></g><g fill="#004aad" fill-opacity="1"><g transform="translate(93.401684, 57.914433)"><g><path d="M 24.046875 -17.84375 L 11.46875 -17.84375 L 9.578125 -6.90625 L 24.46875 -6.90625 L 23.25 0 L 0.25 0 L 7.390625 -41.25 L 30.375 -41.25 L 29.15625 -34.3125 L 14.328125 -34.3125 L 12.640625 -24.5625 L 25.234375 -24.5625 Z M 24.046875 -17.84375 "/></g></g></g><g fill="#004aad" fill-opacity="1"><g transform="translate(121.305376, 57.914433)"><g><path d="M 15.15625 -15.078125 L 11.015625 -15.078125 L 8.40625 0 L 0.28125 0 L 7.421875 -41.25 L 19.890625 -41.21875 C 23.566406 -41.101562 26.382812 -39.96875 28.34375 -37.8125 C 30.3125 -35.664062 31.144531 -32.734375 30.84375 -29.015625 C 30.375 -23.359375 27.804688 -19.425781 23.140625 -17.21875 L 27.28125 -0.453125 L 27.28125 0 L 18.5625 0 Z M 12.203125 -22.015625 L 16.484375 -21.953125 C 18.453125 -21.992188 20 -22.773438 21.125 -24.296875 C 22.257812 -25.816406 22.816406 -27.832031 22.796875 -30.34375 C 22.722656 -32.8125 21.640625 -34.125 19.546875 -34.28125 L 14.359375 -34.3125 Z M 12.203125 -22.015625 "/></g></g></g><g clip-path="url(#id3)"><g fill="#004aad" fill-opacity="1"><g transform="translate(215.930506, 58.94872)"><g><path d="M 24.03125 -17.828125 L 11.453125 -17.828125 L 9.5625 -6.90625 L 24.453125 -6.90625 L 23.234375 0 L 0.25 0 L 7.390625 -41.203125 L 30.328125 -41.203125 L 29.125 -34.265625 L 14.3125 -34.265625 L 12.625 -24.53125 L 25.21875 -24.53125 Z M 24.03125 -17.828125 "/></g></g></g></g><path stroke-linecap="butt" transform="matrix(-3.736017, -0.000000000000000458, 0.000000000000000457, -3.729946, 116.627399, 8.578876)" fill="none" stroke-linejoin="miter" d="M -0.000403344 0.000201448 L 24.45955 0.000201448 " stroke="#0795ff" stroke-width="1" stroke-opacity="1" stroke-miterlimit="4"/><path stroke-linecap="round" transform="matrix(-3.736017, -0.000000000000000458, 0.000000000000000457, -3.729946, 23.376408, 8.578876)" fill="none" stroke-linejoin="round" d="M -2.49957 -1.499485 L -0.500449 0.000201448 L -2.49957 1.499888 " stroke="#0795ff" stroke-width="1" stroke-opacity="1" stroke-miterlimit="4"/></svg>