<svg xmlns="http://www.w3.org/2000/svg" xmlns:xlink="http://www.w3.org/1999/xlink" width="330" zoomAndPan="magnify" viewBox="0 0 247.5 98.999996" height="132" preserveAspectRatio="xMidYMid meet" version="1.0"><defs><g/><clipPath id="id1"><path d="M 167 6 L 219.402344 6 L 219.402344 50 L 167 50 Z M 167 6 " clip-rule="nonzero"/></clipPath><clipPath id="id2"><path d="M 151.902344 29 L 204 29 L 204 73 L 151.902344 73 Z M 151.902344 29 " clip-rule="nonzero"/></clipPath><clipPath id="id3"><path d="M 216 19 L 247 19 L 247 62 L 216 62 Z M 216 19 " clip-rule="nonzero"/></clipPath></defs><g clip-path="url(#id1)"><path fill="#0795ff" d="M 219.261719 29.316406 L 215.796875 11.027344 C 215.761719 10.878906 215.695312 10.75 215.59375 10.636719 C 215.488281 10.523438 215.367188 10.445312 215.222656 10.398438 C 215.078125 10.351562 214.933594 10.347656 214.785156 10.378906 C 214.636719 10.410156 214.507812 10.476562 214.394531 10.574219 L 211.207031 13.785156 C 210.621094 13.191406 210.003906 12.632812 209.359375 12.101562 C 208.71875 11.570312 208.050781 11.070312 207.359375 10.605469 C 206.667969 10.140625 205.953125 9.710938 205.21875 9.316406 C 204.488281 8.921875 203.734375 8.5625 202.964844 8.242188 C 202.195312 7.921875 201.414062 7.640625 200.617188 7.398438 C 199.820312 7.152344 199.015625 6.949219 198.199219 6.785156 C 197.382812 6.621094 196.558594 6.496094 195.730469 6.414062 C 194.902344 6.332031 194.070312 6.289062 193.238281 6.289062 C 192.402344 6.285156 191.574219 6.328125 190.746094 6.40625 C 189.914062 6.488281 189.09375 6.609375 188.273438 6.769531 C 187.457031 6.933594 186.652344 7.132812 185.855469 7.375 C 185.054688 7.617188 184.273438 7.898438 183.503906 8.214844 C 182.734375 8.535156 181.980469 8.890625 181.246094 9.28125 C 180.511719 9.675781 179.796875 10.101562 179.101562 10.566406 C 178.410156 11.03125 177.742188 11.527344 177.097656 12.054688 C 176.453125 12.582031 175.835938 13.144531 175.246094 13.734375 C 174.65625 14.324219 174.097656 14.941406 173.566406 15.585938 C 173.039062 16.230469 172.542969 16.898438 172.078125 17.59375 C 171.613281 18.285156 171.1875 19 170.792969 19.738281 C 170.398438 20.472656 170.042969 21.226562 169.722656 22 C 169.40625 22.769531 169.125 23.554688 168.878906 24.355469 C 168.636719 25.152344 168.433594 25.960938 168.273438 26.78125 C 168.109375 27.601562 167.984375 28.425781 167.902344 29.253906 C 167.820312 30.085938 167.777344 30.917969 167.777344 31.753906 C 167.777344 32.589844 167.816406 33.421875 167.898438 34.253906 C 167.980469 35.085938 168.101562 35.910156 168.261719 36.730469 C 168.425781 37.550781 168.625 38.359375 168.867188 39.15625 C 169.109375 39.957031 169.386719 40.742188 169.707031 41.515625 C 170.023438 42.285156 170.378906 43.039062 170.769531 43.777344 C 171.164062 44.515625 171.589844 45.230469 172.050781 45.925781 C 172.515625 46.621094 173.007812 47.289062 173.539062 47.933594 C 174.066406 48.582031 174.625 49.199219 175.210938 49.789062 L 183.632812 41.347656 C 183.003906 40.71875 182.445312 40.035156 181.949219 39.296875 C 181.457031 38.558594 181.042969 37.777344 180.703125 36.953125 C 180.363281 36.132812 180.105469 35.285156 179.929688 34.414062 C 179.757812 33.542969 179.671875 32.660156 179.671875 31.769531 C 179.671875 30.882812 179.757812 30 179.929688 29.128906 C 180.101562 28.257812 180.359375 27.410156 180.699219 26.585938 C 181.039062 25.765625 181.453125 24.984375 181.945312 24.246094 C 182.4375 23.503906 183 22.820312 183.625 22.191406 C 184.253906 21.5625 184.9375 21 185.675781 20.507812 C 186.410156 20.011719 187.191406 19.597656 188.011719 19.257812 C 188.828125 18.914062 189.675781 18.660156 190.542969 18.484375 C 191.414062 18.3125 192.292969 18.226562 193.179688 18.226562 C 194.066406 18.226562 194.945312 18.3125 195.816406 18.488281 C 196.6875 18.660156 197.53125 18.917969 198.351562 19.257812 C 199.167969 19.601562 199.949219 20.019531 200.683594 20.511719 C 201.421875 21.007812 202.105469 21.570312 202.730469 22.199219 L 199.53125 25.449219 C 199.429688 25.5625 199.367188 25.691406 199.335938 25.839844 C 199.304688 25.988281 199.308594 26.136719 199.355469 26.28125 C 199.402344 26.425781 199.480469 26.546875 199.59375 26.652344 C 199.703125 26.753906 199.832031 26.820312 199.980469 26.855469 L 218.222656 30.332031 C 218.367188 30.367188 218.507812 30.363281 218.652344 30.324219 C 218.792969 30.285156 218.917969 30.214844 219.023438 30.113281 C 219.128906 30.007812 219.203125 29.886719 219.246094 29.746094 C 219.289062 29.605469 219.292969 29.460938 219.261719 29.316406 Z M 219.261719 29.316406 " fill-opacity="1" fill-rule="nonzero"/></g><g clip-path="url(#id2)"><path fill="#ccd8e5" d="M 151.902344 49.71875 L 155.371094 68.011719 C 155.402344 68.160156 155.472656 68.289062 155.574219 68.402344 C 155.675781 68.511719 155.800781 68.59375 155.941406 68.636719 C 156.085938 68.683594 156.234375 68.691406 156.382812 68.660156 C 156.527344 68.628906 156.660156 68.5625 156.773438 68.460938 L 159.957031 65.253906 C 160.546875 65.84375 161.160156 66.40625 161.804688 66.9375 C 162.449219 67.46875 163.113281 67.964844 163.808594 68.429688 C 164.5 68.894531 165.210938 69.324219 165.945312 69.71875 C 166.679688 70.113281 167.429688 70.472656 168.199219 70.792969 C 168.96875 71.113281 169.75 71.394531 170.546875 71.640625 C 171.34375 71.882812 172.152344 72.085938 172.96875 72.25 C 173.785156 72.414062 174.605469 72.539062 175.4375 72.621094 C 176.265625 72.703125 177.09375 72.746094 177.929688 72.746094 C 178.761719 72.75 179.589844 72.707031 180.421875 72.628906 C 181.25 72.546875 182.074219 72.425781 182.890625 72.265625 C 183.707031 72.101562 184.511719 71.902344 185.3125 71.660156 C 186.109375 71.417969 186.890625 71.136719 187.660156 70.820312 C 188.429688 70.5 189.183594 70.144531 189.917969 69.753906 C 190.652344 69.359375 191.367188 68.933594 192.058594 68.46875 C 192.753906 68.007812 193.421875 67.511719 194.066406 66.980469 C 194.710938 66.453125 195.328125 65.890625 195.917969 65.304688 C 196.507812 64.714844 197.066406 64.09375 197.59375 63.449219 C 198.125 62.804688 198.621094 62.136719 199.085938 61.441406 C 199.546875 60.75 199.976562 60.035156 200.371094 59.296875 C 200.761719 58.5625 201.121094 57.808594 201.4375 57.039062 C 201.757812 56.265625 202.039062 55.480469 202.28125 54.683594 C 202.523438 53.882812 202.726562 53.074219 202.890625 52.257812 C 203.054688 51.4375 203.175781 50.613281 203.261719 49.78125 C 203.34375 48.949219 203.382812 48.117188 203.386719 47.28125 C 203.386719 46.449219 203.34375 45.613281 203.265625 44.785156 C 203.183594 43.953125 203.0625 43.128906 202.902344 42.308594 C 202.738281 41.488281 202.539062 40.679688 202.296875 39.878906 C 202.054688 39.082031 201.777344 38.296875 201.457031 37.523438 C 201.140625 36.753906 200.785156 35.996094 200.394531 35.261719 C 200 34.523438 199.574219 33.808594 199.113281 33.113281 C 198.652344 32.417969 198.15625 31.75 197.628906 31.101562 C 197.101562 30.457031 196.542969 29.839844 195.953125 29.246094 L 187.535156 37.691406 C 188.160156 38.320312 188.71875 39.003906 189.214844 39.742188 C 189.707031 40.480469 190.121094 41.261719 190.460938 42.082031 C 190.800781 42.90625 191.054688 43.75 191.230469 44.625 C 191.402344 45.496094 191.488281 46.375 191.488281 47.265625 C 191.488281 48.152344 191.402344 49.035156 191.230469 49.90625 C 191.054688 50.777344 190.800781 51.625 190.460938 52.445312 C 190.121094 53.269531 189.707031 54.046875 189.214844 54.789062 C 188.71875 55.527344 188.160156 56.210938 187.535156 56.839844 C 186.90625 57.46875 186.222656 58.03125 185.488281 58.523438 C 184.75 59.019531 183.972656 59.433594 183.152344 59.777344 C 182.332031 60.117188 181.488281 60.371094 180.617188 60.546875 C 179.75 60.71875 178.871094 60.804688 177.984375 60.804688 C 177.097656 60.804688 176.21875 60.71875 175.347656 60.546875 C 174.480469 60.371094 173.636719 60.117188 172.816406 59.777344 C 171.996094 59.433594 171.21875 59.019531 170.480469 58.523438 C 169.742188 58.03125 169.0625 57.46875 168.433594 56.839844 L 171.632812 53.589844 C 171.734375 53.476562 171.800781 53.34375 171.832031 53.195312 C 171.863281 53.046875 171.855469 52.902344 171.808594 52.757812 C 171.761719 52.613281 171.683594 52.488281 171.574219 52.386719 C 171.460938 52.285156 171.332031 52.214844 171.183594 52.183594 L 152.941406 48.707031 C 152.796875 48.671875 152.65625 48.675781 152.515625 48.714844 C 152.371094 48.753906 152.25 48.824219 152.144531 48.925781 C 152.039062 49.027344 151.964844 49.152344 151.921875 49.292969 C 151.878906 49.433594 151.871094 49.574219 151.902344 49.71875 Z M 151.902344 49.71875 " fill-opacity="1" fill-rule="nonzero"/></g><g fill="#004aad" fill-opacity="1"><g transform="translate(0.225163, 61.820567)"><g><path d="M 15.40625 -15.328125 L 11.203125 -15.328125 L 8.5625 0 L 0.28125 0 L 7.546875 -41.953125 L 20.21875 -41.921875 C 23.96875 -41.804688 26.835938 -40.648438 28.828125 -38.453125 C 30.828125 -36.265625 31.675781 -33.28125 31.375 -29.5 C 30.894531 -23.757812 28.28125 -19.765625 23.53125 -17.515625 L 27.75 -0.46875 L 27.75 0 L 18.875 0 Z M 12.421875 -22.390625 L 16.765625 -22.328125 C 18.765625 -22.367188 20.335938 -23.160156 21.484375 -24.703125 C 22.640625 -26.242188 23.207031 -28.296875 23.1875 -30.859375 C 23.113281 -33.367188 22.007812 -34.703125 19.875 -34.859375 L 14.609375 -34.890625 Z M 12.421875 -22.390625 "/></g></g></g><g fill="#004aad" fill-opacity="1"><g transform="translate(32.205909, 61.820567)"><g><path d="M 24.453125 -18.15625 L 11.671875 -18.15625 L 9.734375 -7.03125 L 24.890625 -7.03125 L 23.65625 0 L 0.265625 0 L 7.515625 -41.953125 L 30.890625 -41.953125 L 29.640625 -34.890625 L 14.578125 -34.890625 L 12.84375 -24.984375 L 25.671875 -24.984375 Z M 24.453125 -18.15625 "/></g></g></g><g fill="#004aad" fill-opacity="1"><g transform="translate(60.585227, 61.820567)"><g><path d="M 15.53125 -11.609375 L 27.109375 -41.953125 L 36.53125 -41.953125 L 18.234375 0 L 9.625 0 L 4.515625 -41.953125 L 13.484375 -41.953125 Z M 15.53125 -11.609375 "/></g></g></g><g fill="#004aad" fill-opacity="1"><g transform="translate(93.948925, 61.820567)"><g><path d="M 24.453125 -18.15625 L 11.671875 -18.15625 L 9.734375 -7.03125 L 24.890625 -7.03125 L 23.65625 0 L 0.265625 0 L 7.515625 -41.953125 L 30.890625 -41.953125 L 29.640625 -34.890625 L 14.578125 -34.890625 L 12.84375 -24.984375 L 25.671875 -24.984375 Z M 24.453125 -18.15625 "/></g></g></g><g fill="#004aad" fill-opacity="1"><g transform="translate(122.328242, 61.820567)"><g><path d="M 15.40625 -15.328125 L 11.203125 -15.328125 L 8.5625 0 L 0.28125 0 L 7.546875 -41.953125 L 20.21875 -41.921875 C 23.96875 -41.804688 26.835938 -40.648438 28.828125 -38.453125 C 30.828125 -36.265625 31.675781 -33.28125 31.375 -29.5 C 30.894531 -23.757812 28.28125 -19.765625 23.53125 -17.515625 L 27.75 -0.46875 L 27.75 0 L 18.875 0 Z M 12.421875 -22.390625 L 16.765625 -22.328125 C 18.765625 -22.367188 20.335938 -23.160156 21.484375 -24.703125 C 22.640625 -26.242188 23.207031 -28.296875 23.1875 -30.859375 C 23.113281 -33.367188 22.007812 -34.703125 19.875 -34.859375 L 14.609375 -34.890625 Z M 12.421875 -22.390625 "/></g></g></g><g clip-path="url(#id3)"><g fill="#004aad" fill-opacity="1"><g transform="translate(216.395683, 61.552793)"><g><path d="M 24.4375 -18.125 L 11.65625 -18.125 L 9.734375 -7.015625 L 24.859375 -7.015625 L 23.625 0 L 0.265625 0 L 7.515625 -41.90625 L 30.84375 -41.90625 L 29.609375 -34.84375 L 14.5625 -34.84375 L 12.828125 -24.953125 L 25.640625 -24.953125 Z M 24.4375 -18.125 "/></g></g></g></g><path stroke-linecap="butt" transform="matrix(3.763386, 0, 0, 3.71517, 22.683049, 8.546539)" fill="none" stroke-linejoin="miter" d="M 0.000144678 0.0000903143 L 24.014425 0.0000903143 " stroke="#ccd8e5" stroke-width="1" stroke-opacity="1" stroke-miterlimit="4"/><path stroke-linecap="round" transform="matrix(3.763386, 0, 0, 3.71517, 114.941211, 8.546539)" fill="none" stroke-linejoin="round" d="M -2.500398 -1.500304 L -0.500246 0.0000903143 L -2.500398 1.500484 " stroke="#ccd8e5" stroke-width="1" stroke-opacity="1" stroke-miterlimit="4"/><path stroke-linecap="butt" transform="matrix(-3.751969, -0.000000000000000459, 0.000000000000000455, -3.71517, 223.577581, 80.459609)" fill="none" stroke-linejoin="miter" d="M -0.000144941 -0.000357594 L 53.071994 -0.000357594 " stroke="#0795ff" stroke-width="1" stroke-opacity="1" stroke-miterlimit="4"/><path stroke-linecap="round" transform="matrix(-3.751969, -0.000000000000000459, 0.000000000000000455, -3.71517, 22.576872, 80.459609)" fill="none" stroke-linejoin="round" d="M -2.500063 -1.4997 L -0.500072 -0.000357594 L -2.500063 1.500036 " stroke="#0795ff" stroke-width="1" stroke-opacity="1" stroke-miterlimit="4"/><g fill="#545454" fill-opacity="1"><g transform="translate(70.309784, 94.106788)"><g><path d="M 5.46875 -1.25 L 2.75 -1.25 L 2.328125 0 L 0.09375 0 L 2.890625 -7.671875 L 5.34375 -7.671875 L 8.140625 0 L 5.875 0 Z M 4.9375 -2.890625 L 4.109375 -5.375 L 3.28125 -2.890625 Z M 4.9375 -2.890625 "/></g></g></g><g fill="#545454" fill-opacity="1"><g transform="translate(78.529461, 94.106788)"><g/></g></g><g fill="#545454" fill-opacity="1"><g transform="translate(80.608877, 94.106788)"><g><path d="M 0.34375 -3.859375 C 0.34375 -4.609375 0.5 -5.28125 0.8125 -5.875 C 1.132812 -6.46875 1.582031 -6.925781 2.15625 -7.25 C 2.738281 -7.582031 3.410156 -7.75 4.171875 -7.75 C 5.128906 -7.75 5.929688 -7.492188 6.578125 -6.984375 C 7.234375 -6.472656 7.660156 -5.78125 7.859375 -4.90625 L 5.546875 -4.90625 C 5.410156 -5.195312 5.222656 -5.414062 4.984375 -5.5625 C 4.742188 -5.71875 4.460938 -5.796875 4.140625 -5.796875 C 3.640625 -5.796875 3.242188 -5.617188 2.953125 -5.265625 C 2.660156 -4.910156 2.515625 -4.441406 2.515625 -3.859375 C 2.515625 -3.265625 2.660156 -2.789062 2.953125 -2.4375 C 3.242188 -2.082031 3.640625 -1.90625 4.140625 -1.90625 C 4.460938 -1.90625 4.742188 -1.976562 4.984375 -2.125 C 5.222656 -2.28125 5.410156 -2.503906 5.546875 -2.796875 L 7.859375 -2.796875 C 7.660156 -1.921875 7.234375 -1.226562 6.578125 -0.71875 C 5.929688 -0.207031 5.128906 0.046875 4.171875 0.046875 C 3.410156 0.046875 2.738281 -0.113281 2.15625 -0.4375 C 1.582031 -0.769531 1.132812 -1.234375 0.8125 -1.828125 C 0.5 -2.421875 0.34375 -3.097656 0.34375 -3.859375 Z M 0.34375 -3.859375 "/></g></g></g><g fill="#545454" fill-opacity="1"><g transform="translate(88.861213, 94.106788)"><g><path d="M 3.453125 0.078125 C 2.835938 0.078125 2.289062 -0.046875 1.8125 -0.296875 C 1.332031 -0.554688 0.953125 -0.921875 0.671875 -1.390625 C 0.398438 -1.867188 0.265625 -2.425781 0.265625 -3.0625 C 0.265625 -3.6875 0.398438 -4.234375 0.671875 -4.703125 C 0.953125 -5.179688 1.332031 -5.546875 1.8125 -5.796875 C 2.300781 -6.054688 2.851562 -6.1875 3.46875 -6.1875 C 4.070312 -6.1875 4.613281 -6.054688 5.09375 -5.796875 C 5.582031 -5.546875 5.96875 -5.179688 6.25 -4.703125 C 6.53125 -4.234375 6.671875 -3.6875 6.671875 -3.0625 C 6.671875 -2.425781 6.53125 -1.867188 6.25 -1.390625 C 5.96875 -0.921875 5.582031 -0.554688 5.09375 -0.296875 C 4.601562 -0.046875 4.054688 0.078125 3.453125 0.078125 Z M 3.453125 -1.78125 C 3.753906 -1.78125 4.003906 -1.890625 4.203125 -2.109375 C 4.398438 -2.328125 4.5 -2.644531 4.5 -3.0625 C 4.5 -3.476562 4.398438 -3.789062 4.203125 -4 C 4.003906 -4.21875 3.757812 -4.328125 3.46875 -4.328125 C 3.175781 -4.328125 2.929688 -4.21875 2.734375 -4 C 2.535156 -3.789062 2.4375 -3.476562 2.4375 -3.0625 C 2.4375 -2.632812 2.53125 -2.3125 2.71875 -2.09375 C 2.90625 -1.882812 3.148438 -1.78125 3.453125 -1.78125 Z M 3.453125 -1.78125 "/></g></g></g><g fill="#545454" fill-opacity="1"><g transform="translate(95.785344, 94.106788)"><g><path d="M 0.265625 -3.0625 C 0.265625 -3.6875 0.378906 -4.234375 0.609375 -4.703125 C 0.835938 -5.179688 1.148438 -5.546875 1.546875 -5.796875 C 1.941406 -6.054688 2.382812 -6.1875 2.875 -6.1875 C 3.269531 -6.1875 3.617188 -6.101562 3.921875 -5.9375 C 4.234375 -5.78125 4.476562 -5.554688 4.65625 -5.265625 L 4.65625 -8.0625 L 6.796875 -8.0625 L 6.796875 0 L 4.65625 0 L 4.65625 -0.84375 C 4.488281 -0.5625 4.25 -0.335938 3.9375 -0.171875 C 3.632812 -0.00390625 3.273438 0.078125 2.859375 0.078125 C 2.378906 0.078125 1.941406 -0.046875 1.546875 -0.296875 C 1.148438 -0.554688 0.835938 -0.921875 0.609375 -1.390625 C 0.378906 -1.867188 0.265625 -2.425781 0.265625 -3.0625 Z M 4.65625 -3.0625 C 4.65625 -3.445312 4.546875 -3.753906 4.328125 -3.984375 C 4.117188 -4.210938 3.859375 -4.328125 3.546875 -4.328125 C 3.234375 -4.328125 2.96875 -4.210938 2.75 -3.984375 C 2.539062 -3.765625 2.4375 -3.457031 2.4375 -3.0625 C 2.4375 -2.664062 2.539062 -2.351562 2.75 -2.125 C 2.96875 -1.894531 3.234375 -1.78125 3.546875 -1.78125 C 3.859375 -1.78125 4.117188 -1.894531 4.328125 -2.125 C 4.546875 -2.351562 4.65625 -2.664062 4.65625 -3.0625 Z M 4.65625 -3.0625 "/></g></g></g><g fill="#545454" fill-opacity="1"><g transform="translate(103.188505, 94.106788)"><g><path d="M 1.6875 -6.671875 C 1.3125 -6.671875 1.007812 -6.773438 0.78125 -6.984375 C 0.550781 -7.191406 0.4375 -7.453125 0.4375 -7.765625 C 0.4375 -8.085938 0.550781 -8.351562 0.78125 -8.5625 C 1.007812 -8.769531 1.3125 -8.875 1.6875 -8.875 C 2.0625 -8.875 2.359375 -8.769531 2.578125 -8.5625 C 2.804688 -8.351562 2.921875 -8.085938 2.921875 -7.765625 C 2.921875 -7.453125 2.804688 -7.191406 2.578125 -6.984375 C 2.359375 -6.773438 2.0625 -6.671875 1.6875 -6.671875 Z M 2.75 -6.109375 L 2.75 0 L 0.609375 0 L 0.609375 -6.109375 Z M 2.75 -6.109375 "/></g></g></g><g fill="#545454" fill-opacity="1"><g transform="translate(106.541695, 94.106788)"><g><path d="M 4.609375 -6.171875 C 5.304688 -6.171875 5.863281 -5.9375 6.28125 -5.46875 C 6.695312 -5 6.90625 -4.363281 6.90625 -3.5625 L 6.90625 0 L 4.765625 0 L 4.765625 -3.28125 C 4.765625 -3.625 4.671875 -3.894531 4.484375 -4.09375 C 4.304688 -4.300781 4.066406 -4.40625 3.765625 -4.40625 C 3.441406 -4.40625 3.191406 -4.300781 3.015625 -4.09375 C 2.835938 -3.894531 2.75 -3.625 2.75 -3.28125 L 2.75 0 L 0.609375 0 L 0.609375 -6.109375 L 2.75 -6.109375 L 2.75 -5.234375 C 2.9375 -5.515625 3.1875 -5.738281 3.5 -5.90625 C 3.820312 -6.082031 4.191406 -6.171875 4.609375 -6.171875 Z M 4.609375 -6.171875 "/></g></g></g><g fill="#545454" fill-opacity="1"><g transform="translate(114.010174, 94.106788)"><g><path d="M 2.859375 -6.1875 C 3.273438 -6.1875 3.632812 -6.101562 3.9375 -5.9375 C 4.25 -5.769531 4.488281 -5.546875 4.65625 -5.265625 L 4.65625 -6.109375 L 6.796875 -6.109375 L 6.796875 -0.0625 C 6.796875 0.507812 6.6875 1.023438 6.46875 1.484375 C 6.25 1.941406 5.910156 2.304688 5.453125 2.578125 C 4.992188 2.859375 4.410156 3 3.703125 3 C 2.753906 3 2 2.773438 1.4375 2.328125 C 0.875 1.890625 0.550781 1.289062 0.46875 0.53125 L 2.5625 0.53125 C 2.613281 0.726562 2.722656 0.878906 2.890625 0.984375 C 3.066406 1.097656 3.296875 1.15625 3.578125 1.15625 C 4.296875 1.15625 4.65625 0.75 4.65625 -0.0625 L 4.65625 -0.84375 C 4.488281 -0.5625 4.25 -0.335938 3.9375 -0.171875 C 3.632812 -0.00390625 3.273438 0.078125 2.859375 0.078125 C 2.378906 0.078125 1.941406 -0.046875 1.546875 -0.296875 C 1.148438 -0.554688 0.835938 -0.921875 0.609375 -1.390625 C 0.378906 -1.867188 0.265625 -2.425781 0.265625 -3.0625 C 0.265625 -3.6875 0.378906 -4.234375 0.609375 -4.703125 C 0.835938 -5.179688 1.148438 -5.546875 1.546875 -5.796875 C 1.941406 -6.054688 2.378906 -6.1875 2.859375 -6.1875 Z M 4.65625 -3.0625 C 4.65625 -3.445312 4.546875 -3.753906 4.328125 -3.984375 C 4.117188 -4.210938 3.859375 -4.328125 3.546875 -4.328125 C 3.234375 -4.328125 2.96875 -4.210938 2.75 -3.984375 C 2.539062 -3.765625 2.4375 -3.457031 2.4375 -3.0625 C 2.4375 -2.664062 2.539062 -2.351562 2.75 -2.125 C 2.96875 -1.894531 3.234375 -1.78125 3.546875 -1.78125 C 3.859375 -1.78125 4.117188 -1.894531 4.328125 -2.125 C 4.546875 -2.351562 4.65625 -2.664062 4.65625 -3.0625 Z M 4.65625 -3.0625 "/></g></g></g><g fill="#545454" fill-opacity="1"><g transform="translate(121.413335, 94.106788)"><g/></g></g><g fill="#545454" fill-opacity="1"><g transform="translate(123.492751, 94.106788)"><g><path d="M 0.34375 -3.859375 C 0.34375 -4.609375 0.5 -5.28125 0.8125 -5.875 C 1.132812 -6.46875 1.582031 -6.925781 2.15625 -7.25 C 2.738281 -7.582031 3.410156 -7.75 4.171875 -7.75 C 5.128906 -7.75 5.929688 -7.492188 6.578125 -6.984375 C 7.234375 -6.472656 7.660156 -5.78125 7.859375 -4.90625 L 5.546875 -4.90625 C 5.410156 -5.195312 5.222656 -5.414062 4.984375 -5.5625 C 4.742188 -5.71875 4.460938 -5.796875 4.140625 -5.796875 C 3.640625 -5.796875 3.242188 -5.617188 2.953125 -5.265625 C 2.660156 -4.910156 2.515625 -4.441406 2.515625 -3.859375 C 2.515625 -3.265625 2.660156 -2.789062 2.953125 -2.4375 C 3.242188 -2.082031 3.640625 -1.90625 4.140625 -1.90625 C 4.460938 -1.90625 4.742188 -1.976562 4.984375 -2.125 C 5.222656 -2.28125 5.410156 -2.503906 5.546875 -2.796875 L 7.859375 -2.796875 C 7.660156 -1.921875 7.234375 -1.226562 6.578125 -0.71875 C 5.929688 -0.207031 5.128906 0.046875 4.171875 0.046875 C 3.410156 0.046875 2.738281 -0.113281 2.15625 -0.4375 C 1.582031 -0.769531 1.132812 -1.234375 0.8125 -1.828125 C 0.5 -2.421875 0.34375 -3.097656 0.34375 -3.859375 Z M 0.34375 -3.859375 "/></g></g></g><g fill="#545454" fill-opacity="1"><g transform="translate(131.745087, 94.106788)"><g><path d="M 4.625 -6.171875 C 5.320312 -6.171875 5.875 -5.9375 6.28125 -5.46875 C 6.695312 -5 6.90625 -4.363281 6.90625 -3.5625 L 6.90625 0 L 4.765625 0 L 4.765625 -3.28125 C 4.765625 -3.625 4.671875 -3.894531 4.484375 -4.09375 C 4.304688 -4.300781 4.066406 -4.40625 3.765625 -4.40625 C 3.441406 -4.40625 3.191406 -4.300781 3.015625 -4.09375 C 2.835938 -3.894531 2.75 -3.625 2.75 -3.28125 L 2.75 0 L 0.609375 0 L 0.609375 -8.0625 L 2.75 -8.0625 L 2.75 -5.234375 C 2.9375 -5.515625 3.191406 -5.738281 3.515625 -5.90625 C 3.835938 -6.082031 4.207031 -6.171875 4.625 -6.171875 Z M 4.625 -6.171875 "/></g></g></g><g fill="#545454" fill-opacity="1"><g transform="translate(139.213566, 94.106788)"><g><path d="M 0.265625 -3.0625 C 0.265625 -3.6875 0.378906 -4.234375 0.609375 -4.703125 C 0.835938 -5.179688 1.148438 -5.546875 1.546875 -5.796875 C 1.941406 -6.054688 2.378906 -6.1875 2.859375 -6.1875 C 3.285156 -6.1875 3.648438 -6.101562 3.953125 -5.9375 C 4.253906 -5.769531 4.488281 -5.546875 4.65625 -5.265625 L 4.65625 -6.109375 L 6.796875 -6.109375 L 6.796875 0 L 4.65625 0 L 4.65625 -0.84375 C 4.488281 -0.5625 4.25 -0.335938 3.9375 -0.171875 C 3.632812 -0.00390625 3.273438 0.078125 2.859375 0.078125 C 2.378906 0.078125 1.941406 -0.046875 1.546875 -0.296875 C 1.148438 -0.554688 0.835938 -0.921875 0.609375 -1.390625 C 0.378906 -1.867188 0.265625 -2.425781 0.265625 -3.0625 Z M 4.65625 -3.0625 C 4.65625 -3.445312 4.546875 -3.753906 4.328125 -3.984375 C 4.117188 -4.210938 3.859375 -4.328125 3.546875 -4.328125 C 3.234375 -4.328125 2.96875 -4.210938 2.75 -3.984375 C 2.539062 -3.765625 2.4375 -3.457031 2.4375 -3.0625 C 2.4375 -2.664062 2.539062 -2.351562 2.75 -2.125 C 2.96875 -1.894531 3.234375 -1.78125 3.546875 -1.78125 C 3.859375 -1.78125 4.117188 -1.894531 4.328125 -2.125 C 4.546875 -2.351562 4.65625 -2.664062 4.65625 -3.0625 Z M 4.65625 -3.0625 "/></g></g></g><g fill="#545454" fill-opacity="1"><g transform="translate(146.616726, 94.106788)"><g><path d="M 2.75 -8.0625 L 2.75 0 L 0.609375 0 L 0.609375 -8.0625 Z M 2.75 -8.0625 "/></g></g></g><g fill="#545454" fill-opacity="1"><g transform="translate(149.969917, 94.106788)"><g><path d="M 2.75 -8.0625 L 2.75 0 L 0.609375 0 L 0.609375 -8.0625 Z M 2.75 -8.0625 "/></g></g></g><g fill="#545454" fill-opacity="1"><g transform="translate(153.323108, 94.106788)"><g><path d="M 6.453125 -3.125 C 6.453125 -2.957031 6.441406 -2.789062 6.421875 -2.625 L 2.375 -2.625 C 2.394531 -2.289062 2.484375 -2.039062 2.640625 -1.875 C 2.804688 -1.71875 3.019531 -1.640625 3.28125 -1.640625 C 3.632812 -1.640625 3.890625 -1.796875 4.046875 -2.109375 L 6.3125 -2.109375 C 6.21875 -1.691406 6.035156 -1.316406 5.765625 -0.984375 C 5.492188 -0.648438 5.148438 -0.390625 4.734375 -0.203125 C 4.316406 -0.015625 3.859375 0.078125 3.359375 0.078125 C 2.765625 0.078125 2.234375 -0.046875 1.765625 -0.296875 C 1.296875 -0.554688 0.925781 -0.921875 0.65625 -1.390625 C 0.394531 -1.867188 0.265625 -2.425781 0.265625 -3.0625 C 0.265625 -3.695312 0.394531 -4.25 0.65625 -4.71875 C 0.914062 -5.1875 1.28125 -5.546875 1.75 -5.796875 C 2.21875 -6.054688 2.753906 -6.1875 3.359375 -6.1875 C 3.960938 -6.1875 4.492188 -6.0625 4.953125 -5.8125 C 5.421875 -5.570312 5.785156 -5.21875 6.046875 -4.75 C 6.316406 -4.289062 6.453125 -3.75 6.453125 -3.125 Z M 4.265625 -3.65625 C 4.265625 -3.914062 4.175781 -4.117188 4 -4.265625 C 3.832031 -4.421875 3.617188 -4.5 3.359375 -4.5 C 3.097656 -4.5 2.882812 -4.425781 2.71875 -4.28125 C 2.550781 -4.144531 2.441406 -3.9375 2.390625 -3.65625 Z M 4.265625 -3.65625 "/></g></g></g><g fill="#545454" fill-opacity="1"><g transform="translate(160.029501, 94.106788)"><g><path d="M 4.609375 -6.171875 C 5.304688 -6.171875 5.863281 -5.9375 6.28125 -5.46875 C 6.695312 -5 6.90625 -4.363281 6.90625 -3.5625 L 6.90625 0 L 4.765625 0 L 4.765625 -3.28125 C 4.765625 -3.625 4.671875 -3.894531 4.484375 -4.09375 C 4.304688 -4.300781 4.066406 -4.40625 3.765625 -4.40625 C 3.441406 -4.40625 3.191406 -4.300781 3.015625 -4.09375 C 2.835938 -3.894531 2.75 -3.625 2.75 -3.28125 L 2.75 0 L 0.609375 0 L 0.609375 -6.109375 L 2.75 -6.109375 L 2.75 -5.234375 C 2.9375 -5.515625 3.1875 -5.738281 3.5 -5.90625 C 3.820312 -6.082031 4.191406 -6.171875 4.609375 -6.171875 Z M 4.609375 -6.171875 "/></g></g></g><g fill="#545454" fill-opacity="1"><g transform="translate(167.49798, 94.106788)"><g><path d="M 2.859375 -6.1875 C 3.273438 -6.1875 3.632812 -6.101562 3.9375 -5.9375 C 4.25 -5.769531 4.488281 -5.546875 4.65625 -5.265625 L 4.65625 -6.109375 L 6.796875 -6.109375 L 6.796875 -0.0625 C 6.796875 0.507812 6.6875 1.023438 6.46875 1.484375 C 6.25 1.941406 5.910156 2.304688 5.453125 2.578125 C 4.992188 2.859375 4.410156 3 3.703125 3 C 2.753906 3 2 2.773438 1.4375 2.328125 C 0.875 1.890625 0.550781 1.289062 0.46875 0.53125 L 2.5625 0.53125 C 2.613281 0.726562 2.722656 0.878906 2.890625 0.984375 C 3.066406 1.097656 3.296875 1.15625 3.578125 1.15625 C 4.296875 1.15625 4.65625 0.75 4.65625 -0.0625 L 4.65625 -0.84375 C 4.488281 -0.5625 4.25 -0.335938 3.9375 -0.171875 C 3.632812 -0.00390625 3.273438 0.078125 2.859375 0.078125 C 2.378906 0.078125 1.941406 -0.046875 1.546875 -0.296875 C 1.148438 -0.554688 0.835938 -0.921875 0.609375 -1.390625 C 0.378906 -1.867188 0.265625 -2.425781 0.265625 -3.0625 C 0.265625 -3.6875 0.378906 -4.234375 0.609375 -4.703125 C 0.835938 -5.179688 1.148438 -5.546875 1.546875 -5.796875 C 1.941406 -6.054688 2.378906 -6.1875 2.859375 -6.1875 Z M 4.65625 -3.0625 C 4.65625 -3.445312 4.546875 -3.753906 4.328125 -3.984375 C 4.117188 -4.210938 3.859375 -4.328125 3.546875 -4.328125 C 3.234375 -4.328125 2.96875 -4.210938 2.75 -3.984375 C 2.539062 -3.765625 2.4375 -3.457031 2.4375 -3.0625 C 2.4375 -2.664062 2.539062 -2.351562 2.75 -2.125 C 2.96875 -1.894531 3.234375 -1.78125 3.546875 -1.78125 C 3.859375 -1.78125 4.117188 -1.894531 4.328125 -2.125 C 4.546875 -2.351562 4.65625 -2.664062 4.65625 -3.0625 Z M 4.65625 -3.0625 "/></g></g></g><g fill="#545454" fill-opacity="1"><g transform="translate(174.901141, 94.106788)"><g><path d="M 6.453125 -3.125 C 6.453125 -2.957031 6.441406 -2.789062 6.421875 -2.625 L 2.375 -2.625 C 2.394531 -2.289062 2.484375 -2.039062 2.640625 -1.875 C 2.804688 -1.71875 3.019531 -1.640625 3.28125 -1.640625 C 3.632812 -1.640625 3.890625 -1.796875 4.046875 -2.109375 L 6.3125 -2.109375 C 6.21875 -1.691406 6.035156 -1.316406 5.765625 -0.984375 C 5.492188 -0.648438 5.148438 -0.390625 4.734375 -0.203125 C 4.316406 -0.015625 3.859375 0.078125 3.359375 0.078125 C 2.765625 0.078125 2.234375 -0.046875 1.765625 -0.296875 C 1.296875 -0.554688 0.925781 -0.921875 0.65625 -1.390625 C 0.394531 -1.867188 0.265625 -2.425781 0.265625 -3.0625 C 0.265625 -3.695312 0.394531 -4.25 0.65625 -4.71875 C 0.914062 -5.1875 1.28125 -5.546875 1.75 -5.796875 C 2.21875 -6.054688 2.753906 -6.1875 3.359375 -6.1875 C 3.960938 -6.1875 4.492188 -6.0625 4.953125 -5.8125 C 5.421875 -5.570312 5.785156 -5.21875 6.046875 -4.75 C 6.316406 -4.289062 6.453125 -3.75 6.453125 -3.125 Z M 4.265625 -3.65625 C 4.265625 -3.914062 4.175781 -4.117188 4 -4.265625 C 3.832031 -4.421875 3.617188 -4.5 3.359375 -4.5 C 3.097656 -4.5 2.882812 -4.425781 2.71875 -4.28125 C 2.550781 -4.144531 2.441406 -3.9375 2.390625 -3.65625 Z M 4.265625 -3.65625 "/></g></g></g></svg>