<svg xmlns="http://www.w3.org/2000/svg" xmlns:xlink="http://www.w3.org/1999/xlink" width="150" zoomAndPan="magnify" viewBox="0 0 112.5 60" height="80" preserveAspectRatio="xMidYMid meet" version="1.0"><defs><clipPath id="id1"><path d="M 0.492188 1 L 34 1 L 34 59.867188 L 0.492188 59.867188 Z M 0.492188 1 " clip-rule="nonzero"/></clipPath><clipPath id="id2"><path d="M 79 1 L 112 1 L 112 59.867188 L 79 59.867188 Z M 79 1 " clip-rule="nonzero"/></clipPath><clipPath id="id3"><path d="M 44 1 L 69 1 L 69 59.867188 L 44 59.867188 Z M 44 1 " clip-rule="nonzero"/></clipPath></defs><g clip-path="url(#id1)"><path fill="#5e17eb" d="M 32.128906 1.984375 C 30.960938 0.8125 29.148438 0.8125 27.976562 1.984375 L 1.664062 28.371094 C 0.492188 29.542969 0.492188 31.359375 1.664062 32.535156 L 27.976562 58.921875 C 28.5625 59.507812 29.324219 59.800781 30.023438 59.800781 C 30.726562 59.800781 31.542969 59.507812 32.070312 58.921875 C 33.242188 57.75 33.242188 55.929688 32.070312 54.757812 L 7.917969 30.421875 L 32.128906 6.089844 C 33.300781 4.972656 33.300781 3.097656 32.128906 1.984375 Z M 32.128906 1.984375 " fill-opacity="1" fill-rule="nonzero"/></g><g clip-path="url(#id2)"><path fill="#5e17eb" d="M 111.074219 28.371094 L 84.757812 1.984375 C 83.589844 0.8125 81.777344 0.8125 80.605469 1.984375 C 79.4375 3.15625 79.4375 4.972656 80.605469 6.148438 L 104.875 30.421875 L 80.605469 54.757812 C 79.4375 55.929688 79.4375 57.75 80.605469 58.921875 C 81.191406 59.507812 81.953125 59.800781 82.652344 59.800781 C 83.355469 59.800781 84.175781 59.507812 84.699219 58.921875 L 111.015625 32.535156 C 112.242188 31.359375 112.242188 29.484375 111.074219 28.371094 Z M 111.074219 28.371094 " fill-opacity="1" fill-rule="nonzero"/></g><g clip-path="url(#id3)"><path fill="#5e17eb" d="M 66.105469 1.28125 C 64.585938 0.75 62.886719 1.574219 62.421875 3.15625 L 44.878906 55.929688 C 44.351562 57.457031 45.167969 59.15625 46.75 59.625 C 47.042969 59.742188 47.390625 59.800781 47.683594 59.800781 C 48.914062 59.800781 50.023438 59.039062 50.433594 57.808594 L 67.976562 5.03125 C 68.445312 3.449219 67.625 1.75 66.105469 1.28125 Z M 66.105469 1.28125 " fill-opacity="1" fill-rule="nonzero"/></g></svg>