<svg xmlns="http://www.w3.org/2000/svg" xmlns:xlink="http://www.w3.org/1999/xlink" width="150" zoomAndPan="magnify" viewBox="0 0 112.5 44.999999" height="60" preserveAspectRatio="xMidYMid meet" version="1.0"><defs><g/><clipPath id="id1"><path d="M 0.941406 2.449219 L 23 2.449219 L 23 41.449219 L 0.941406 41.449219 Z M 0.941406 2.449219 " clip-rule="nonzero"/></clipPath><clipPath id="id2"><path d="M 89.167969 2.449219 L 111.433594 2.449219 L 111.433594 41.449219 L 89.167969 41.449219 Z M 89.167969 2.449219 " clip-rule="nonzero"/></clipPath></defs><g clip-path="url(#id1)"><path fill="#5271ff" d="M 0.941406 21.941406 C 0.941406 21.242188 1.207031 20.542969 1.734375 20.011719 L 18.308594 3.238281 C 19.367188 2.167969 21.078125 2.167969 22.128906 3.238281 C 23.183594 4.304688 23.183594 6.035156 22.128906 7.101562 L 7.460938 21.941406 L 22.128906 36.785156 C 23.183594 37.851562 23.183594 39.582031 22.128906 40.648438 C 21.074219 41.714844 19.363281 41.714844 18.308594 40.648438 L 1.734375 23.875 C 1.207031 23.34375 0.941406 22.640625 0.941406 21.941406 Z M 0.941406 21.941406 " fill-opacity="1" fill-rule="nonzero"/></g><g fill="#5271ff" fill-opacity="1"><g transform="translate(61.557538, 41.048169)"><g><path d="M 0.875 -0.359375 C 0.875 -0.660156 0.957031 -0.984375 1.125 -1.328125 L 19.046875 -38.125 C 19.453125 -38.976562 20.164062 -39.40625 21.1875 -39.40625 C 21.9375 -39.40625 22.625 -39.148438 23.25 -38.640625 C 23.882812 -38.128906 24.203125 -37.484375 24.203125 -36.703125 C 24.203125 -36.328125 24.128906 -36.003906 23.984375 -35.734375 L 6.03125 1.078125 C 5.613281 1.921875 4.84375 2.34375 3.71875 2.34375 C 2.90625 2.34375 2.226562 2.0625 1.6875 1.5 C 1.144531 0.9375 0.875 0.316406 0.875 -0.359375 Z M 0.875 -0.359375 "/></g></g></g><g clip-path="url(#id2)"><path fill="#5271ff" d="M 111.550781 21.941406 C 111.550781 21.242188 111.289062 20.542969 110.761719 20.011719 L 94.183594 3.238281 C 93.128906 2.167969 91.417969 2.167969 90.363281 3.238281 C 89.3125 4.304688 89.3125 6.035156 90.363281 7.101562 L 105.035156 21.941406 L 90.367188 36.785156 C 89.3125 37.851562 89.3125 39.582031 90.367188 40.648438 C 91.421875 41.714844 93.132812 41.714844 94.183594 40.648438 L 110.761719 23.875 C 111.289062 23.34375 111.550781 22.640625 111.550781 21.941406 Z M 111.550781 21.941406 " fill-opacity="1" fill-rule="nonzero"/></g><g fill="#d9d9d9" fill-opacity="1"><g transform="translate(19.753766, 34.271946)"><g><path d="M 1.546875 -9.9375 C 1.546875 -11.957031 1.953125 -13.726562 2.765625 -15.25 C 3.585938 -16.78125 4.710938 -17.960938 6.140625 -18.796875 C 7.566406 -19.640625 9.160156 -20.0625 10.921875 -20.0625 C 12.648438 -20.0625 14.148438 -19.6875 15.421875 -18.9375 C 16.691406 -18.195312 17.640625 -17.265625 18.265625 -16.140625 L 18.265625 -19.75 L 21.578125 -19.75 L 21.578125 0 L 18.265625 0 L 18.265625 -3.671875 C 17.617188 -2.523438 16.648438 -1.570312 15.359375 -0.8125 C 14.078125 -0.0507812 12.582031 0.328125 10.875 0.328125 C 9.125 0.328125 7.539062 -0.101562 6.125 -0.96875 C 4.707031 -1.832031 3.585938 -3.046875 2.765625 -4.609375 C 1.953125 -6.171875 1.546875 -7.945312 1.546875 -9.9375 Z M 18.265625 -9.90625 C 18.265625 -11.394531 17.960938 -12.691406 17.359375 -13.796875 C 16.765625 -14.898438 15.957031 -15.742188 14.9375 -16.328125 C 13.914062 -16.921875 12.789062 -17.21875 11.5625 -17.21875 C 10.34375 -17.21875 9.226562 -16.929688 8.21875 -16.359375 C 7.207031 -15.785156 6.398438 -14.941406 5.796875 -13.828125 C 5.203125 -12.722656 4.90625 -11.425781 4.90625 -9.9375 C 4.90625 -8.425781 5.203125 -7.113281 5.796875 -6 C 6.398438 -4.882812 7.207031 -4.03125 8.21875 -3.4375 C 9.226562 -2.851562 10.34375 -2.5625 11.5625 -2.5625 C 12.789062 -2.5625 13.914062 -2.851562 14.9375 -3.4375 C 15.957031 -4.03125 16.765625 -4.882812 17.359375 -6 C 17.960938 -7.113281 18.265625 -8.414062 18.265625 -9.90625 Z M 18.265625 -9.90625 "/></g></g></g><g fill="#d9d9d9" fill-opacity="1"><g transform="translate(44.102208, 34.271946)"><g><path d="M 10.734375 0.25 C 9.078125 0.25 7.59375 -0.0390625 6.28125 -0.625 C 4.976562 -1.21875 3.953125 -2.035156 3.203125 -3.078125 C 2.460938 -4.117188 2.078125 -5.328125 2.046875 -6.703125 L 5.546875 -6.703125 C 5.671875 -5.523438 6.15625 -4.53125 7 -3.71875 C 7.851562 -2.914062 9.097656 -2.515625 10.734375 -2.515625 C 12.296875 -2.515625 13.523438 -2.90625 14.421875 -3.6875 C 15.328125 -4.46875 15.78125 -5.472656 15.78125 -6.703125 C 15.78125 -7.660156 15.515625 -8.4375 14.984375 -9.03125 C 14.460938 -9.632812 13.800781 -10.09375 13 -10.40625 C 12.207031 -10.71875 11.140625 -11.054688 9.796875 -11.421875 C 8.140625 -11.859375 6.8125 -12.289062 5.8125 -12.71875 C 4.820312 -13.15625 3.972656 -13.832031 3.265625 -14.75 C 2.554688 -15.675781 2.203125 -16.921875 2.203125 -18.484375 C 2.203125 -19.847656 2.546875 -21.054688 3.234375 -22.109375 C 3.929688 -23.171875 4.910156 -23.988281 6.171875 -24.5625 C 7.441406 -25.144531 8.890625 -25.4375 10.515625 -25.4375 C 12.867188 -25.4375 14.796875 -24.847656 16.296875 -23.671875 C 17.804688 -22.492188 18.65625 -20.929688 18.84375 -18.984375 L 15.234375 -18.984375 C 15.117188 -19.953125 14.613281 -20.800781 13.71875 -21.53125 C 12.832031 -22.257812 11.660156 -22.625 10.203125 -22.625 C 8.828125 -22.625 7.707031 -22.269531 6.84375 -21.5625 C 5.976562 -20.851562 5.546875 -19.863281 5.546875 -18.59375 C 5.546875 -17.675781 5.800781 -16.929688 6.3125 -16.359375 C 6.832031 -15.785156 7.472656 -15.347656 8.234375 -15.046875 C 8.992188 -14.742188 10.054688 -14.398438 11.421875 -14.015625 C 13.078125 -13.554688 14.410156 -13.101562 15.421875 -12.65625 C 16.429688 -12.21875 17.296875 -11.535156 18.015625 -10.609375 C 18.734375 -9.679688 19.09375 -8.425781 19.09375 -6.84375 C 19.09375 -5.625 18.769531 -4.472656 18.125 -3.390625 C 17.476562 -2.304688 16.515625 -1.425781 15.234375 -0.75 C 13.960938 -0.0820312 12.460938 0.25 10.734375 0.25 Z M 10.734375 0.25 "/></g></g></g></svg>